<?xml version="1.0" encoding="iso-8859-1"?>
<!-- Generator: Adobe Illustrator 19.0.0, SVG Export Plug-In . SVG Version: 6.00 Build 0)  -->
<svg version="1.1" id="Layer_1" xmlns="http://www.w3.org/2000/svg" xmlns:xlink="http://www.w3.org/1999/xlink" x="0px" y="0px"
	 viewBox="0 0 511.999 511.999" style="enable-background:new 0 0 511.999 511.999;" xml:space="preserve">
<path style="fill:#90A4AE;" d="M255.231,413.92l88.582-222.253c3.706-9.3,14.251-13.834,23.55-10.128
	c9.3,3.706,13.834,14.251,10.128,23.55l-84.597,212.253L255.231,413.92z"/>
<path style="fill:#FFF9C5;" d="M290.147,220.503c0.009-0.021,0.018-0.042,0.027-0.063c-0.009,0.001-0.018,0.003-0.026,0.004
	L290.147,220.503z"/>
<path style="opacity:0.1;enable-background:new    ;" d="M367.363,181.539c-9.3-3.706-19.844,0.828-23.55,10.128l-23.196,58.198
	c5.91,0.944,11.789,2.558,17.575,4.864c5.787,2.307,11.186,5.177,16.11,8.54l23.189-58.179
	C381.198,195.79,376.663,185.247,367.363,181.539z"/>
<path style="fill:#FFF9C5;" d="M399.439,101.064l-66.839,7.184l-42.452,49.442l0.007,62.741l0.03-0.012
	c-0.003,0.007-0.006,0.015-0.01,0.022c18.539-3.443,39.181-1.636,59.162,6.327c19.854,7.913,35.994,20.69,47.078,35.813l0.194,0.354
	l34.918-34.573l3.895-86.27L399.439,101.064z"/>
<path style="fill:#FFCA28;" d="M461.474,453.004c-24.324-38.881-106.705-67.493-204.589-67.493
	c-97.881,0-180.259,28.611-204.586,67.489l13.666,0.004l29.657,19.019l31.185,3.389l21.978-12.698l34.885-12.724l18.721,5.084
	l39.826,20.337l26.268-4.237l33.895-12.646l24.573-7.69l31.352,7.69l25.421,16.884l40.673-5.084L461.474,453.004z"/>
<path style="opacity:0.1;enable-background:new    ;" d="M427.252,468.995l34.222-15.992
	c-24.324-38.88-106.705-67.493-204.589-67.493c-22.505,0-44.187,1.516-64.535,4.317
	C293.324,401.408,377.778,430.446,427.252,468.995z"/>
<path style="fill:#4FC3F7;" d="M508.525,457.179c-24.037-16.302-55.101-16.302-79.138,0c-18.905,12.821-43.336,12.821-62.244,0
	c-24.037-16.302-55.101-16.302-79.138,0c-18.905,12.821-43.337,12.821-62.244,0c-24.037-16.302-55.101-16.302-79.138,0
	c-18.906,12.821-43.337,12.821-62.244,0c-24.037-16.302-55.101-16.302-79.138,0c-3.44,2.333-4.338,7.013-2.005,10.452
	c2.333,3.44,7.014,4.337,10.452,2.005c18.905-12.821,43.337-12.822,62.244,0c24.038,16.301,55.102,16.301,79.138,0
	c18.905-12.821,43.337-12.822,62.244,0c24.038,16.301,55.102,16.301,79.138,0c18.905-12.821,43.337-12.822,62.244,0
	c12.019,8.15,25.794,12.226,39.57,12.226s27.55-4.076,39.569-12.226c18.905-12.821,43.337-12.821,62.244,0
	c3.44,2.334,8.119,1.435,10.452-2.005C512.863,464.191,511.966,459.512,508.525,457.179z"/>
<g>
	<path style="fill:#EF495B;" d="M290.155,220.431c-11.09-15.249-27.316-28.137-47.296-36.101
		c-19.99-7.968-40.643-9.772-59.188-6.323c0,0,89.986-127.076,215.769-76.943c0,0-65.963,17.643-109.291,119.44L290.155,220.431z"/>
	<path style="fill:#EF495B;" d="M396.654,262.877c18.539-3.441,39.181-1.634,59.162,6.329c19.99,7.968,36.222,20.864,47.311,36.124
		c0,0,22.095-154.135-103.689-204.268c0,0,35.743,58.179-2.829,161.872L396.654,262.877z"/>
</g>
<circle style="fill:#FFCA28;" cx="85.808" cy="115.776" r="40.997"/>
<path d="M37.114,115.772c0,26.756,21.767,48.522,48.522,48.522c26.756,0,48.523-21.767,48.523-48.522S112.392,67.25,85.636,67.25
	C58.882,67.25,37.114,89.017,37.114,115.772z M85.637,82.301c18.457,0,33.472,15.015,33.472,33.471s-15.016,33.471-33.472,33.471
	s-33.472-15.014-33.472-33.471S67.18,82.301,85.637,82.301z"/>
<path d="M93.162,52.798V37.66c0-4.156-3.368-7.525-7.525-7.525s-7.525,3.369-7.525,7.525v15.138c0,4.156,3.368,7.525,7.525,7.525
	S93.162,56.954,93.162,52.798z"/>
<path d="M135.549,55.217l-10.704,10.704c-2.939,2.939-2.939,7.704,0,10.642c1.47,1.47,3.395,2.204,5.322,2.204
	c1.925,0,3.852-0.734,5.322-2.203l10.704-10.704c2.939-2.939,2.939-7.704,0-10.643C143.253,52.279,138.489,52.278,135.549,55.217z"
	/>
<path d="M163.749,123.297c4.157,0,7.525-3.369,7.525-7.525s-3.368-7.525-7.525-7.525h-15.137c-4.157,0-7.525,3.369-7.525,7.525
	s3.368,7.525,7.525,7.525H163.749z"/>
<path d="M124.845,154.981c-2.939,2.939-2.939,7.704,0,10.642l10.704,10.704c1.47,1.469,3.396,2.204,5.322,2.204
	s3.852-0.734,5.322-2.204c2.939-2.939,2.939-7.704,0-10.643l-10.704-10.703C132.548,152.042,127.784,152.042,124.845,154.981z"/>
<path d="M78.112,178.747v15.138c0,4.156,3.368,7.525,7.525,7.525s7.525-3.369,7.525-7.525v-15.138c0-4.156-3.368-7.525-7.525-7.525
	S78.112,174.591,78.112,178.747z"/>
<path d="M25.082,176.327c1.47,1.469,3.395,2.204,5.322,2.204c1.925,0,3.852-0.734,5.322-2.204l10.704-10.704
	c2.939-2.939,2.939-7.704,0-10.642c-2.939-2.939-7.703-2.939-10.643,0l-10.704,10.703C22.143,168.623,22.143,173.388,25.082,176.327
	z"/>
<path d="M7.525,123.297h15.137c4.157,0,7.525-3.369,7.525-7.525s-3.368-7.525-7.525-7.525H7.525c-4.157,0-7.525,3.369-7.525,7.525
	S3.368,123.297,7.525,123.297z"/>
<path d="M35.725,55.217c-2.94-2.939-7.704-2.939-10.643,0s-2.939,7.704,0,10.643l10.704,10.704c1.47,1.469,3.396,2.203,5.322,2.203
	c1.925,0,3.852-0.734,5.322-2.204c2.939-2.939,2.939-7.704,0-10.642L35.725,55.217z"/>
<path d="M390.087,266.915c1.918,2.61,4.877,4.087,8.141,3.292c17.807-3.229,36.69-1.16,54.628,5.989
	c18.073,7.203,33.291,18.807,44.009,33.557c1.437,1.977,3.714,3.101,6.087,3.101c0.602,0,1.21-0.072,1.812-0.222
	c2.974-0.737,5.204-3.205,5.638-6.238c0.284-1.991,6.799-49.36-8.723-100.965c-1.196-3.98-5.402-6.235-9.373-5.039
	c-3.98,1.197-6.236,5.394-5.038,9.373c9.06,30.124,10.049,59.251,9.493,77.019c-10.74-10.394-23.739-18.752-38.332-24.568
	c-16.59-6.612-33.947-9.423-50.843-8.3c0.128-0.389,0.244-0.769,0.37-1.156c5.88-17.964,10.265-36.477,12.422-55.27
	c1.973-17.197,2.157-34.568-0.008-51.756c-1.254-9.954-3.388-19.799-6.45-29.355c-0.022-0.069-0.044-0.143-0.067-0.212
	c27.001,14.629,47.758,36.185,61.846,64.284c1.862,3.715,6.384,5.216,10.099,3.354c3.715-1.862,5.216-6.384,3.354-10.1
	c-18.674-37.246-47.974-64.037-87.111-79.638c-53.828-21.451-109.852-14.395-162.006,20.406
	c-38.931,25.977-61.729,57.839-62.681,59.182c-1.771,2.5-1.848,5.825-0.197,8.404c1.651,2.58,4.697,3.903,7.714,3.342
	c17.927-3.333,36.955-1.288,55.027,5.915c17.81,7.099,32.849,18.471,43.541,32.917c2.08,2.81,5.114,4.538,8.675,3.48
	c9.557-1.694,19.418-1.862,29.274-0.544l-60.123,150.855c-1.517-0.013-3.029-0.04-4.551-0.04c-34.684,0-67.831,3.455-98.52,10.269
	c-4.057,0.901-6.616,4.92-5.714,8.978c0.901,4.057,4.913,6.617,8.977,5.715c29.202-6.484,62.142-9.911,95.257-9.911
	c15.696,0,31.402,0.746,47.022,2.298c0.056,0.005,0.111,0.004,0.168,0.008c29.047,2.88,56.27,8.423,80.299,16.471
	c28.686,9.607,50.833,22.267,63.831,36.298c-6.558,2.037-12.901,5.057-18.818,9.069c-18.905,12.821-43.336,12.821-62.242,0
	c-24.039-16.303-55.103-16.302-79.139,0c-18.905,12.821-43.336,12.821-62.242,0c-24.038-16.303-55.102-16.302-79.139,0
	c-18.905,12.821-43.336,12.821-62.242,0c-5.916-4.012-12.259-7.033-18.817-9.069c12.98-14.011,35.088-26.657,63.717-36.259
	c3.94-1.321,6.063-5.587,4.742-9.528c-1.321-3.94-5.585-6.064-9.527-4.742c-35.962,12.06-62.068,28.415-75.913,47.485
	c-15.017-0.812-30.224,3.219-43.34,12.113c-3.44,2.333-4.337,7.012-2.004,10.452c2.332,3.44,7.008,4.338,10.452,2.005
	c11.17-7.575,24.27-10.672,37.019-9.295c0.459,0.099,0.92,0.162,1.384,0.173c8.348,1.116,16.51,4.151,23.841,9.123
	c24.036,16.301,55.099,16.303,79.138,0c18.907-12.822,43.339-12.821,62.243,0c24.037,16.301,55.1,16.303,79.138,0
	c18.906-12.822,43.338-12.821,62.243,0c12.019,8.151,25.794,12.227,39.57,12.227s27.55-4.076,39.57-12.227
	c7.314-4.96,15.456-7.993,23.785-9.115c0.493-0.009,0.984-0.076,1.472-0.184c12.739-1.368,25.826,1.729,36.986,9.298
	c3.441,2.333,8.12,1.436,10.452-2.005c2.333-3.44,1.436-8.119-2.004-10.452c-13.116-8.896-28.324-12.925-43.34-12.113
	c-13.861-19.093-40.008-35.461-76.032-47.525c-22.361-7.488-47.316-12.893-73.85-16.102l53.915-135.271
	C377.184,252.044,384.284,259.022,390.087,266.915z M302.325,211.403c0.08-0.17,0.163-0.338,0.244-0.508
	c7.009-14.674,15.187-28.858,24.726-42.04c2.332-3.222,1.664-8.085-1.684-10.508c-3.275-2.371-8.144-1.584-10.509,1.685
	c-7.659,10.583-14.464,21.784-20.571,33.329c-2.206,4.172-4.447,8.394-6.339,12.721c-0.033,0.07-0.068,0.139-0.101,0.21
	c-11.496-12.441-26.025-22.34-42.62-28.952c-14.597-5.818-29.789-8.691-44.735-8.535c10.047-11.299,26.551-27.793,48.035-42.063
	c21.302-14.15,43.29-23.387,65.35-27.454c21.343-3.934,42.879-3.011,64.249,2.73c-0.086,0.047-0.178,0.099-0.264,0.146
	c-11.561,6.345-22.28,14.175-32.012,23.063c-3.796,3.467-7.499,7.031-11.047,10.75c-2.868,3.008-2.755,7.772,0.253,10.64
	c3.008,2.868,7.771,2.755,10.64-0.253c9.646-10.118,20.538-19.371,32.428-26.852c5.48-3.449,11.2-6.565,17.173-9.077
	c1.569,3.559,3.61,8.828,5.526,15.729c9.074,32.689,6.622,67.965-1.332,100.608c-1.711,7.02-3.688,13.979-5.93,20.847
	c-0.023,0.071-0.048,0.144-0.071,0.216c-10.24-10.834-22.815-19.68-37.052-26.047c-0.195-0.087-0.39-0.174-0.585-0.26
	C339.26,214.096,320.73,210.387,302.325,211.403z M356.029,238.179L299.576,379.82c-3.489-0.302-7.002-0.56-10.535-0.788
	c-3.905-0.268-7.817-0.465-11.728-0.624l59.02-148.079c3.572,1.023,7.088,2.24,10.531,3.633
	C347.422,234.189,356.045,238.139,356.029,238.179z"/>
<g>
</g>
<g>
</g>
<g>
</g>
<g>
</g>
<g>
</g>
<g>
</g>
<g>
</g>
<g>
</g>
<g>
</g>
<g>
</g>
<g>
</g>
<g>
</g>
<g>
</g>
<g>
</g>
<g>
</g>
</svg>
