<svg xmlns="http://www.w3.org/2000/svg" viewBox="0 0 189.25 452"><defs><style>.cls-1{fill:#fff;}</style></defs><title>hero-mask</title><g id="Layer_2" data-name="Layer 2"><g id="Layer_1-2" data-name="Layer 1"><g id="Layer_1-2-2" data-name="Layer 1-2"><path class="cls-1" d="M122.94,363a449.61,449.61,0,0,0,40.45,89h20a719.57,719.57,0,0,1-31.59-80.67,599.86,599.86,0,0,1-24.32-108.26c-4.73-37.3-5-75-2.46-112.48A764.26,764.26,0,0,1,150.79,0H133.61q-2,7.92-3.81,15.85c-15.28,65.51-24.8,132.42-20.32,199.8.43,6.45-5.79,11.91-11.9,11.91-6.74,0-11.48-5.49-11.91-11.91a537.34,537.34,0,0,1-.7-58.16C87.18,104.25,96.64,51.74,109.12,0H90.41A562,562,0,0,0,68.92,112.55c-.66,7.59-12.57,7.64-11.91,0A578.71,578.71,0,0,1,78,0H0V452H148.24a467,467,0,0,1-37.93-85.56C107.67,358.4,120.32,355,122.94,363ZM71.31,186.56v0A432.54,432.54,0,0,0,89.52,307.93c1.11,3.68-4.64,5.24-5.74,1.58A438.16,438.16,0,0,1,65.36,186.6C65.33,182.72,71.28,182.73,71.31,186.56ZM39.4,92.8c.56-3.78,6.3-2.16,5.74,1.58a437.61,437.61,0,0,0-.9,123.15c.51,3.79-5.45,3.74-6,0A442.83,442.83,0,0,1,39.4,92.8ZM82.48,420.66C59.1,379.9,44,334.21,37.3,287.75c-.92-6.39,1.47-12.77,8.31-14.65,5.64-1.55,13.73,1.95,14.65,8.32,6.39,44.51,20.37,88.15,42.78,127.23C110.68,422,90.1,434,82.48,420.66Zm36.78-155.4a440.67,440.67,0,0,0,15.35,71.93c1.66,5.53-7,7.87-8.61,2.38a454.19,454.19,0,0,1-15.67-74.31C109.61,259.56,118.55,259.63,119.26,265.26Z"/><path class="cls-1" d="M138.54,247.62a585.62,585.62,0,0,0,45.3,177.59c1.51,3.5,6.64.48,5.14-3a576.76,576.76,0,0,1-44.49-174.58c-.35-3.78-6.31-3.82-6,0Z"/><path class="cls-1" d="M146.34,184.78c.19,5.75-8.75,5.73-8.93,0A510.44,510.44,0,0,1,165.71,0h9.44A503.45,503.45,0,0,0,146.34,184.78Z"/><path class="cls-1" d="M159,165.24a420.06,420.06,0,0,0,18.29,153.09c1.72,5.47,10.34,3.13,8.61-2.37a412.87,412.87,0,0,1-18-150.72c.38-5.74-8.55-5.72-8.93,0Z"/></g></g></g></svg>